<?xml version="1.0" encoding="iso-8859-1"?>
<!-- Generator: Adobe Illustrator 19.0.0, SVG Export Plug-In . SVG Version: 6.00 Build 0)  -->
<svg version="1.1" id="Layer_1" xmlns="http://www.w3.org/2000/svg" xmlns:xlink="http://www.w3.org/1999/xlink" x="0px" y="0px"
	 viewBox="0 0 512 512" style="enable-background:new 0 0 512 512;" xml:space="preserve">
<polygon style="fill:#FF9811;" points="81.318,0 81.318,499.953 117.459,493.929 394.541,493.929 430.682,499.953 430.682,0 "/>
<polygon style="fill:#BF720D;" points="256,0 256,493.929 394.541,493.929 430.682,499.953 430.682,0 "/>
<rect x="81.318" y="493.929" style="fill:#786145;" width="36.141" height="18.071"/>
<rect x="394.541" y="493.929" style="fill:#50412E;" width="36.141" height="18.071"/>
<path style="fill:#786145;" d="M256,325.271c-43.178,0-78.306-35.128-78.306-78.306s35.128-78.306,78.306-78.306
	s78.306,35.128,78.306,78.306S299.178,325.271,256,325.271z"/>
<path style="fill:#50412E;" d="M256,168.659c43.178,0,78.306,35.128,78.306,78.306S299.178,325.271,256,325.271"/>
<g>
</g>
<g>
</g>
<g>
</g>
<g>
</g>
<g>
</g>
<g>
</g>
<g>
</g>
<g>
</g>
<g>
</g>
<g>
</g>
<g>
</g>
<g>
</g>
<g>
</g>
<g>
</g>
<g>
</g>
</svg>
