<svg id="Capa_1" enable-background="new 0 0 512 512" height="512" viewBox="0 0 512 512" width="512" xmlns="http://www.w3.org/2000/svg"><g><path d="m202.351 407.732-25.093-137.934-71.294 32.382-69.478 31.558 16.132 89.011c-4.948-.807-10.067-.972-15.267-.018-24.404 4.469-41.069 27.98-36.586 52.384 3.969 21.665 23.403 36.885 44.687 36.885 28.167 0 49.338-25.605 44.282-53.13l-19.526-107.494 35.757-16.241 48.706-22.123 10.554 58.561c-4.988-.798-10.106-.916-15.242.022-24.417 4.479-40.648 27.858-36.152 52.368 4.058 22.121 23.333 36.885 44.165 36.885 28.231 0 49.424-25.476 44.355-53.116z" fill="#9bf"/><path d="m165.225 371.573c-4.988-.798-10.106-.916-15.242.022-24.417 4.479-40.648 27.858-36.152 52.368 4.058 22.121 23.333 36.885 44.165 36.885 28.231 0 49.424-25.475 44.355-53.115l-25.093-137.934-71.294 32.382v32.953l48.706-22.123z" fill="#8095ff"/><path d="m345.965 16.648-50.303 5.076-18.155 137.322c-8.082-6.268-17.532-10.596-27.929-12.103-32.789-4.689-63.23 17.847-67.998 50.742-5.314 36.392 23.047 68.628 59.414 68.628 29.297 0 54.99-21.548 59.326-51.372.009-.06 21.943-165.766 21.943-165.766l23.701-2.388 131.254-13.125-14.11 106.784c-7.921-6.156-17.313-10.611-27.931-12.151-32.585-4.724-63.21 17.717-67.998 50.742-5.314 36.392 23.047 68.628 59.414 68.628 29.297 0 54.99-21.548 59.326-51.387.01-.06 26.046-196.278 26.046-196.278z" fill="#9bf"/><path d="m463.108 140.446c-7.921-6.156-17.313-10.611-27.931-12.151-32.585-4.724-63.21 17.717-67.998 50.742-5.314 36.392 23.047 68.628 59.414 68.628 29.297 0 54.99-21.548 59.326-51.387.01-.06 26.046-196.278 26.046-196.278l-166 16.648v30.139l131.254-13.125z" fill="#8095ff"/><path d="m409.744 274.428-49.105 102.85c-3.53-3.549-7.577-6.678-12.345-8.954-5.621-2.69-11.503-4.1-17.329-4.369-17.584-.811-34.678 8.835-42.671 25.565-14.251 29.832 7.495 64.395 40.518 64.395.732 0 1.425-.266 2.153-.3 16.003-.784 31.157-9.851 38.54-25.276v-.015l36.108-75.615 16.216 45.864 28.271-9.99z" fill="#ffd480"/><path d="m369.505 428.339v-.015l36.108-75.615 16.216 45.864 28.271-9.99-40.356-114.155-49.105 102.85c-3.53-3.549-7.577-6.678-12.345-8.954-5.621-2.69-11.503-4.1-17.329-4.369v89.659c16.003-.783 31.157-9.85 38.54-25.275z" fill="#fb3"/><path d="m154.554 107.392-78.589-52.07-22.339-14.8 22.339 110.087.335 1.652c-.108-.016-.227.02-.335.005-4.85-.668-9.846-.773-14.927.229-24.468 4.991-40.063 28.777-35.142 53.057 4.449 21.815 23.573 36.064 44.004 36.064 2.098 0 4.054-.419 6.064-.69 25.494-3.43 43.356-27.572 38.145-53.275l-16.685-82.119 40.547 26.88z" fill="#ffd480"/><path d="m114.109 187.65-16.685-82.119 40.547 26.88 16.582-25.02-78.589-52.07v95.286l.335 1.652c-.108-.016-.227.02-.335.005v88.66c25.494-3.429 43.356-27.571 38.145-53.274z" fill="#fb3"/></g></svg>