<svg height="512pt" viewBox="0 0 512 512.256" width="512pt" xmlns="http://www.w3.org/2000/svg"><path d="m73.269531 398.335938v-324.9375c0-20.199219-16.371093-36.570313-36.570312-36.570313s-36.570313 16.371094-36.570313 36.570313v324.9375c20.761719-18.78125 52.378906-18.78125 73.140625 0zm0 0"/><path d="m155.554688 137.398438c0-5.050782 4.09375-9.140626 9.144531-9.140626s9.144531 4.089844 9.144531 9.140626v156.097656c6.414062.851562 12.613281 2.886718 18.285156 6.003906v-226.101562h-54.859375v226.113281c5.671875-3.117188 11.871094-5.15625 18.285157-6.007813zm0 0"/><path d="m139.097656 320.796875 25.601563 63.460937 25.601562-63.460937c-6.785156-6.695313-16.085937-10.214844-25.601562-9.683594-9.515625-.53125-18.816407 2.988281-25.601563 9.683594zm0 0"/><path d="m277.613281 144.257812c2.320313 5.648438 1.703125 12.078126-1.644531 17.1875l-9.875 14.71875 15.269531 15.269532 14.71875-9.875c3.011719-1.984375 6.542969-3.035156 10.148438-3.015625 2.414062.003906 4.800781.46875 7.039062 1.371093 5.617188 2.367188 9.691407 7.367188 10.882813 13.347657l3.472656 17.28125h21.578125l3.472656-17.28125c1.175781-5.992188 5.269531-11.003907 10.90625-13.355469 5.636719-2.347656 12.078125-1.730469 17.164063 1.652344l14.71875 9.875 15.269531-15.269532-9.875-14.71875c-3.382813-5.085937-4-11.527343-1.652344-17.164062 2.351563-5.636719 7.363281-9.726562 13.355469-10.90625l17.28125-3.472656v-21.578125l-17.28125-3.472657c-5.980469-1.191406-10.980469-5.265624-13.347656-10.882812-.296875-.734375-.511719-1.5-.640625-2.285156-1.460938-5.0625-.625-10.507813 2.285156-14.902344l9.875-14.71875-15.269531-15.269531-14.71875 9.875c-5.085938 3.382812-11.527344 4-17.164063 1.652343-5.636719-2.351562-9.730469-7.363281-10.90625-13.355468l-3.472656-17.28125h-21.578125l-3.472656 17.28125c-1.179688 5.992187-5.269532 11.003906-10.90625 13.355468-5.640625 2.347657-12.078125 1.730469-17.164063-1.652343l-14.71875-9.875-15.269531 15.269531 9.875 14.71875c2.910156 4.394531 3.746094 9.839844 2.285156 14.902344-.128906.785156-.34375 1.550781-.640625 2.285156-2.371093 5.617188-7.371093 9.691406-13.347656 10.882812l-17.28125 3.472657v21.578125l17.28125 3.472656c5.976563 1.1875 10.976563 5.265625 13.347656 10.882812zm60.800781-80c30.296876 0 54.855469 24.558594 54.855469 54.855469s-24.558593 54.855469-54.855469 54.855469c-30.296874 0-54.859374-24.558594-54.859374-54.855469.039062-30.28125 24.578124-54.820312 54.859374-54.855469zm0 0"/><path d="m192.128906 27.429688c0-15.148438-12.28125-27.429688-27.429687-27.429688-15.148438 0-27.429688 12.28125-27.429688 27.429688v27.683593h54.859375zm0 0"/><path d="m374.984375 119.113281c0 20.199219-16.371094 36.570313-36.570313 36.570313-20.199218 0-36.570312-16.371094-36.570312-36.570313s16.371094-36.570312 36.570312-36.570312c20.199219 0 36.570313 16.371093 36.570313 36.570312zm0 0"/><path d="m431.488281 457.398438h-21.578125c-8.71875-.007813-16.21875-6.167969-17.917968-14.71875l-3.476563-17.28125-14.71875 9.785156c-7.257813 4.769531-16.863281 3.816406-23.039063-2.289063l-15.269531-15.265625c-6.148437-6.160156-7.101562-15.796875-2.285156-23.042968l9.78125-14.71875-17.277344-3.472657c-8.554687-1.703125-14.714843-9.203125-14.722656-17.921875v-21.578125c.007813-8.71875 6.167969-16.21875 14.722656-17.917969l17.277344-3.476562-9.78125-14.71875c-4.816406-7.246094-3.863281-16.882812 2.285156-23.039062l15.269531-15.269532c6.15625-6.144531 15.792969-7.101562 23.039063-2.285156l14.71875 9.78125 3.476563-17.277344c1.699218-8.550781 9.199218-14.714844 17.917968-14.722656h21.578125c7.214844.007812 13.742188 4.277344 16.640625 10.882812v-102.308593c.011719-3.3125-.449218-6.605469-1.371094-9.785157-2.308593 5.699219-7.324218 9.855469-13.351562 11.0625l-17.277344 3.476563 9.78125 14.71875c4.816406 7.246094 3.859375 16.882813-2.285156 23.039063l-15.269531 15.269531c-6.15625 6.148437-15.792969 7.101562-23.039063 2.285156l-14.71875-9.78125-3.476562 17.28125c-1.699219 8.550781-9.199219 14.710937-17.917969 14.71875h-21.578125c-8.71875-.007813-16.21875-6.167969-17.917969-14.71875l-3.476562-17.28125-14.71875 9.78125c-7.257813 4.773437-16.863281 3.820313-23.039063-2.285156l-15.269531-15.269531c-6.148437-6.15625-7.101563-15.792969-2.285156-23.039063l9.78125-14.71875-17.28125-3.476563c-8.550781-1.699218-14.710938-9.199218-14.71875-17.917968v-19.933594h-18.285157v208c0 1.171875-.222656 2.332031-.660156 3.421875l-25.324218 62.867187h7.699218c5.046875 0 9.140625 4.089844 9.140625 9.140626 0 5.050781-4.09375 9.144531-9.140625 9.144531h-27.429687c-7.464844.027343-14.191407-4.5-16.96875-11.429688l-28.085938-69.722656c-.4375-1.089844-.660156-2.25-.660156-3.421875v-208h-27.429687v329.144531c0 5.050781-4.089844 9.144531-9.140626 9.144531-5.050781 0-9.144531-4.09375-9.144531-9.144531 0-20.199219-16.371093-36.570312-36.570312-36.570312s-36.570313 16.371093-36.570313 36.570312v36.570313c0 20.199218 16.371094 36.574218 36.570313 36.574218h374.855469c20.199218 0 36.574218-16.375 36.574218-36.574218v-29.164063c-2.898437 6.605469-9.425781 10.875-16.640625 10.878907zm-120.503906-36.570313c5.050781 0 9.144531 4.09375 9.144531 9.140625 0 5.050781-4.09375 9.144531-9.144531 9.144531h-73.140625c-5.050781 0-9.144531-4.09375-9.144531-9.144531 0-5.046875 4.09375-9.140625 9.144531-9.140625zm-82.285156-36.570313h64c5.050781 0 9.144531 4.089844 9.144531 9.140626 0 5.050781-4.09375 9.144531-9.144531 9.144531h-64c-5.050781 0-9.144531-4.09375-9.144531-9.144531 0-5.050782 4.09375-9.140626 9.144531-9.140626zm-73.144531 36.570313h45.714843c5.050781 0 9.144531 4.09375 9.144531 9.140625 0 5.050781-4.09375 9.144531-9.144531 9.144531h-45.714843c-5.046876 0-9.140626-4.09375-9.140626-9.144531 0-5.046875 4.09375-9.140625 9.140626-9.140625zm182.859374 54.855469h-182.859374c-5.046876 0-9.140626-4.09375-9.140626-9.140625 0-5.050781 4.09375-9.144531 9.140626-9.144531h182.859374c5.050782 0 9.140626 4.09375 9.140626 9.144531 0 5.046875-4.089844 9.140625-9.140626 9.140625zm0 0"/><path d="m457.269531 347.683594c0 20.199218-16.371093 36.574218-36.570312 36.574218s-36.570313-16.375-36.570313-36.574218c0-20.195313 16.371094-36.570313 36.570313-36.570313s36.570312 16.375 36.570312 36.570313zm0 0"/><path d="m494.847656 333.421875c-5.992187-1.175781-11.003906-5.269531-13.355468-10.90625-2.347657-5.636719-1.730469-12.078125 1.652343-17.164063l9.875-14.71875-15.269531-15.269531-11.335938 7.589844-3.382812 2.285156c-4.390625 2.910157-9.839844 3.746094-14.902344 2.285157-.785156-.125-1.550781-.339844-2.285156-.640626-5.617188-2.367187-9.691406-7.367187-10.882812-13.347656l-3.472657-17.277344h-21.578125l-3.472656 17.277344c-1.179688 5.996094-5.269531 11.003906-10.90625 13.355469s-12.078125 1.730469-17.164062-1.652344l-14.71875-9.875-15.269532 15.269531 9.875 14.71875c3.382813 5.085938 4 11.527344 1.652344 17.164063-2.351562 5.636719-7.363281 9.730469-13.355469 10.90625l-17.28125 3.472656v21.578125l17.28125 3.476563c5.992188 1.175781 11.003907 5.265625 13.355469 10.90625 2.347656 5.636719 1.730469 12.074219-1.652344 17.160156l-9.875 14.71875 15.269532 15.269531 14.71875-9.875c3.011718-1.984375 6.542968-3.03125 10.148437-3.015625 2.414063.003907 4.804687.46875 7.039063 1.371094 5.617187 2.371094 9.695312 7.371094 10.882812 13.347656l3.472656 17.28125h21.578125l3.472657-17.28125c1.191406-5.976562 5.265624-10.976562 10.882812-13.347656.734375-.296875 1.5-.511719 2.285156-.640625 5.0625-1.457031 10.507813-.621094 14.902344 2.285156l3.382812 2.285156 11.335938 7.589844 15.269531-15.269531-9.875-14.71875c-3.382812-5.085937-4-11.523437-1.652343-17.160156 2.351562-5.640625 7.363281-9.730469 13.355468-10.90625l17.28125-3.476563v-21.578125zm-74.148437 69.121094c-30.296875 0-54.855469-24.5625-54.855469-54.859375s24.558594-54.855469 54.855469-54.855469 54.855469 24.558594 54.855469 54.855469c-.035157 30.28125-24.574219 54.824218-54.855469 54.859375zm0 0"/></svg>