<svg id="Layer_35" enable-background="new 0 0 64 64" height="512" viewBox="0 0 64 64" width="512" xmlns="http://www.w3.org/2000/svg"><path d="m3 61h22v-22h-22zm16-2h-2v-2h2zm4 0h-2v-2h2zm-10-18h10v2h-10zm-4 0h2v2h-2zm-4 0h2v2h-2zm0 4h18v2h-18zm0 4h18v2h-18zm0 4h18v2h-18zm0 4h10v2h-10z"/><path d="m51 47v4h-17c13.233 0 24-10.767 24-24s-10.767-24-24-24-24 10.767-24 24v1h-.865l2.865 3.438 2.865-3.438h-.865v-1c0-11.028 8.972-20 20-20s20 8.972 20 20-8.972 20-20 20h-7v4 6h24v4h12v-14zm8 10h-4v-2h4zm0-4h-4v-2h4z"/><path d="m37 38c6.065 0 11-4.935 11-11s-4.935-11-11-11h-1v10h-10v1c0 6.065 4.935 11 11 11zm3-8h2v2h-2zm-4 0h2v2h-2zm-4 0h2v2h-2z"/><path d="m34 12h-1c-6.065 0-11 4.935-11 11v1h12z"/></svg>