<?xml version="1.0" encoding="iso-8859-1"?>
<!-- Generator: Adobe Illustrator 19.0.0, SVG Export Plug-In . SVG Version: 6.00 Build 0)  -->
<svg version="1.1" id="Capa_1" xmlns="http://www.w3.org/2000/svg" xmlns:xlink="http://www.w3.org/1999/xlink" x="0px" y="0px"
	 viewBox="0 0 511.999 511.999" style="enable-background:new 0 0 511.999 511.999;" xml:space="preserve">
<path style="fill:#AEAFB0;" d="M494.447,68.934l15.712,15.712c2.452,2.452,2.452,6.429,0,8.881l-14.073,14.073
	c-2.452,2.452-6.429,2.452-8.881,0l-16.8-16.8l-49.014-49.014l-16.8-16.8c-2.452-2.452-2.452-6.429,0-8.881l14.073-14.073
	c2.452-2.452,6.429-2.452,8.881,0l15.712,15.712L494.447,68.934z"/>
<path style="fill:#B57049;" d="M430.45,121.148l76.731-63.873L454.34,4.434l-63.873,76.731l0,0L251.717,209.454
	c-33.739-16.86-73.021-13.359-101.897,15.516c-8.92,8.92-15.732,19.148-20.439,30.066c-4.767,11.056-14.952,18.796-26.902,20.251
	c-25.629,3.12-50.445,14.486-70.15,34.104c-46.661,46.455-40.977,116.538,5.253,163.421c46.863,47.527,117.331,53.785,164.449,6.666
	c19.723-19.723,31.152-44.597,34.291-70.293c1.455-11.91,9.079-22.157,20.105-26.888c11.503-4.936,22.243-12.205,31.499-21.81
	c28.259-29.322,30.74-68.92,13.049-102.607L430.45,121.148L430.45,121.148z"/>
<path style="opacity:0.2;fill:#332E2F;enable-background:new    ;" d="M408.141,98.682L278.664,235.417
	c17.692,33.688,15.21,73.285-13.049,102.607c-9.257,9.605-19.996,16.874-31.499,21.81c-11.026,4.731-18.65,14.978-20.105,26.888
	c-3.139,25.695-14.567,50.569-34.291,70.293c-43.068,43.068-105.64,41.534-151.867,4.66c3.055,3.835,6.35,7.556,9.884,11.141
	c46.863,47.527,117.331,53.785,164.449,6.666c19.723-19.723,31.152-44.597,34.291-70.293c1.455-11.91,9.079-22.157,20.105-26.888
	c11.503-4.936,22.243-12.205,31.499-21.81c28.259-29.322,30.739-68.92,13.049-102.607l129.476-136.735l76.731-63.873l-22.467-22.467
	L408.141,98.682z"/>
<path style="fill:#8F4D30;" d="M427.152,111.242c-1.994,0-3.99-0.756-5.519-2.268c-3.082-3.048-3.111-8.018-0.063-11.101
	l62.744-63.459c3.047-3.082,8.017-3.111,11.101-0.063c3.082,3.048,3.111,8.018,0.063,11.101l-62.744,63.459
	C431.199,110.464,429.175,111.242,427.152,111.242z"/>
<circle style="opacity:0.2;fill:#332E2F;enable-background:new    ;" cx="174.667" cy="336.941" r="54.678"/>
<path style="fill:#EBECED;" d="M117.352,455.508l-64.205-64.205c-4.062-4.062-4.062-10.711,0-14.773l0.308-0.308
	c4.062-4.062,10.71-4.062,14.773,0l64.205,64.205c4.062,4.062,4.062,10.711,0,14.773l-0.308,0.308
	C128.062,459.57,121.415,459.57,117.352,455.508z"/>
<circle style="fill:#332E2F;" cx="174.667" cy="336.941" r="30.805"/>
<g>
	<path style="fill:#FFDB4C;" d="M500.05,274.872c-1.841-1.491-4.257-2.072-6.571-1.578l-109.498,23.268
		c-3.626,0.77-6.218,3.972-6.218,7.678v102.875c-5.501-2.733-12.087-4.328-19.171-4.328c-19.259,0-34.871,11.758-34.871,26.263
		c0,14.505,15.612,26.263,34.871,26.263c19.259,0,34.871-11.758,34.871-26.263c0-0.02-0.002-0.04-0.002-0.06
		c0-0.014,0.002-0.026,0.002-0.04V310.596l93.798-19.932v82.407c-5.521-2.751-12.136-4.355-19.251-4.355
		c-19.303,0-34.951,11.785-34.951,26.324c0,14.538,15.648,26.324,34.951,26.324c18.536,0,33.693-10.87,34.868-24.607
		c0.048-0.353,0.082-0.71,0.082-1.075v-114.71C502.96,278.603,501.891,276.361,500.05,274.872z"/>
	<path style="fill:#FFDB4C;" d="M210.623,4.886c-1.841-1.491-4.257-2.071-6.571-1.578L94.553,26.577
		c-3.627,0.77-6.218,3.972-6.218,7.678V137.13c-5.501-2.733-12.087-4.328-19.171-4.328c-19.259,0-34.871,11.758-34.871,26.263
		c0,14.505,15.612,26.263,34.871,26.263s34.871-11.758,34.871-26.263c0-0.02-0.002-0.04-0.002-0.059c0-0.014,0.002-0.026,0.002-0.04
		V40.612l93.798-19.932v82.407c-5.521-2.75-12.136-4.355-19.251-4.355c-19.303,0-34.951,11.785-34.951,26.324
		s15.648,26.324,34.951,26.324c18.535,0,33.693-10.87,34.868-24.606c0.048-0.353,0.082-0.71,0.082-1.075V10.987
		C213.533,8.618,212.464,6.377,210.623,4.886z"/>
</g>
<path style="fill:#8F4D30;" d="M406.923,94.546c-1.954,0-3.91-0.724-5.432-2.184c-3.128-3.001-3.233-7.969-0.232-11.099
	l63.481-66.196c3.001-3.128,7.97-3.233,11.099-0.232s3.233,7.969,0.232,11.099L412.59,92.13
	C411.048,93.736,408.986,94.546,406.923,94.546z"/>
<g>
</g>
<g>
</g>
<g>
</g>
<g>
</g>
<g>
</g>
<g>
</g>
<g>
</g>
<g>
</g>
<g>
</g>
<g>
</g>
<g>
</g>
<g>
</g>
<g>
</g>
<g>
</g>
<g>
</g>
</svg>
