<svg id="Capa_1" enable-background="new 0 0 511.995 511.995" height="512" viewBox="0 0 511.995 511.995" width="512" xmlns="http://www.w3.org/2000/svg"><g><path d="m445.997 291.995h-380c-24.813 0-45 20.187-45 45v130c0 24.813 20.187 45 45 45h380c24.813 0 45-20.187 45-45v-130c0-24.814-20.187-45-45-45zm-304.032 174.913c-11.465.063-19.287.093-24.674.093-11.166 0-11.88-.123-12.96-.309-7.202-1.234-12.466-7.478-12.466-14.784v-99.916c0-8.284 6.716-15 15-15s15 6.716 15 15v84.994c6-.012 13.148-.04 19.933-.078h.086c8.245 0 14.952 6.66 14.998 14.916.045 8.284-6.633 15.037-14.917 15.084zm69.921-14.916c0 8.284-6.716 15-15 15s-15-6.716-15-15v-100c0-8.284 6.716-15 15-15s15 6.716 15 15zm125.342-95.088-32.651 98.286c-.011.034-.022.068-.034.103-2.363 6.948-8.882 11.649-16.222 11.698-.039.001-.078.001-.116.001-7.293 0-13.817-4.602-16.261-11.481-.012-.034-.024-.067-.036-.102l-34.19-98.498c-2.717-7.826 1.425-16.373 9.251-19.09 7.827-2.713 16.374 1.427 19.089 9.252l21.882 63.039 20.818-62.665c2.612-7.863 11.1-12.12 18.964-9.507 7.862 2.612 12.118 11.103 9.506 18.964zm79.796 30.088c8.284 0 15 6.716 15 15s-6.716 15-15 15h-24.029v20h27.136c8.284 0 15 6.716 15 15s-6.716 15-15 15h-42.136c-8.284 0-15-6.716-15-15v-100c0-8.284 6.716-15 15-15h42.136c8.284 0 15 6.716 15 15s-6.716 15-15 15h-27.136v20z"/><g><path d="m275.468 236.948-19.47-25.766-19.47 25.765c-6.277 8.305-6.754 17.581-4.778 25.048h48.495c1.976-7.467 1.499-16.743-4.777-25.047z"/><path d="m212.594 218.86 31.437-41.601c2.835-3.752 7.265-5.957 11.967-5.957s9.132 2.205 11.967 5.957l31.437 41.602c9.499 12.57 13.364 28.062 11.411 43.134h56.126c20.549-27.284 28.879-61.821 21.575-95.275-8.262-37.841-34.599-62.587-49.562-73.97-4.645-3.532-10.915-4.051-16.076-1.331-5.162 2.721-8.277 8.187-7.987 14.015.377 7.598-4.316 14.745-11.957 18.208-3.015 1.366-6.084 1.972-8.951 2.131 8.671-30.79 7.605-57.8-3.21-80.478-15.925-33.391-47.344-44.102-48.673-44.542-3.874-1.278-8.106-.915-11.716.99-3.608 1.905-6.289 5.212-7.417 9.134-.147.513-15.225 51.698-56.913 88.7-21.145 18.77-35.436 40.712-41.327 63.454-2.968 11.457-5.734 29.526-2.052 50.539 3.118 17.792 10.2 34.035 21.06 48.425h57.45c-1.954-15.072 1.911-30.565 11.411-43.135z"/></g></g></svg>